<svg width="512" height="512" viewBox="0 0 512 512" fill="none" xmlns="http://www.w3.org/2000/svg">
    <title>Web Analyzer Logo</title>
    <defs>
        <linearGradient id="grad1" x1="0%" y1="0%" x2="100%" y2="100%">
            <stop offset="0%" style="stop-color:#007CF0;stop-opacity:1" />
            <stop offset="100%" style="stop-color:#00DFD8;stop-opacity:1" />
        </linearGradient>
    </defs>
    <path d="M448 256C448 362.013 362.013 448 256 448C149.987 448 64 362.013 64 256C64 149.987 149.987 64 256 64C362.013 64 448 149.987 448 256Z" fill="url(#grad1)"/>
    <path d="M346.857 346.857L426.667 426.667" stroke="white" stroke-width="32" stroke-linecap="round"/>
    <path d="M256 160C256 160 224 208 192 224C160 240 128 224 128 224" stroke="white" stroke-width="24" stroke-linecap="round"/>
    <path d="M256 352C256 352 288 304 320 288C352 272 384 288 384 288" stroke="white" stroke-width="24" stroke-linecap="round"/>
    <path d="M160 256C160 256 208 288 224 320C240 352 224 384 224 384" stroke="white" stroke-width="24" stroke-linecap="round"/>
    <path d="M352 256C352 256 304 224 288 192C272 160 288 128 288 128" stroke="white" stroke-width="24" stroke-linecap="round"/>
    <circle cx="256" cy="256" r="48" fill="white"/>
</svg> 